<svg version="1.1" xmlns="http://www.w3.org/2000/svg" viewBox="0 0 144 72">
<!-- Adapted from https://commons.wikimedia.org/wiki/File:OpenMoji-black_1F37D.svg -->
<g fill="none" stroke="#808080" stroke-width="2" stroke-linecap="round" stroke-linejoin="round" stroke-miterlimit="10">
<g transform="scale(0.5) translate(16,8)">
<path d="M11.4,16.7c0,0,0.1,4.2,0.1,8.1c0,3-0.9,4.8-2.2,5.6l0,0l0,28.4c0,1.1-0.9,2-2,2s-2-0.9-2-2l0.8-28.4l0,0C4.9,29.7,4,27.8,4,24.8c0-3.9,0.1-8.1,0.1-8.1"/>
<line x1="7.8" y1="16.7" x2="7.8" y2="26.3"/>
</g>
<g transform="scale(0.5) translate(64,8)">
<path d="M11.4,16.7c0,0,0.1,4.2,0.1,8.1c0,3-0.9,4.8-2.2,5.6l0,0l0,28.4c0,1.1-0.9,2-2,2s-2-0.9-2-2l0.8-28.4l0,0C4.9,29.7,4,27.8,4,24.8c0-3.9,0.1-8.1,0.1-8.1"/>
<line x1="7.8" y1="16.7" x2="7.8" y2="26.3"/>
</g>
<g transform="scale(0.5) translate(10,60)">
<path d="M66.1,26.3c0-5.9-5.1-12.2-5.1-10.3s0.9,26.6,0.9,26.6L61,58.8c0,1.1,0.9,2,2,2s2-0.9,2-2l-0.5-16.3C64.5,42.5,66.1,32.2,66.1,26.3z"/>
</g>
<g transform="scale(0.5) translate(8,63) rotate(-90, 36, 36)">
<path d="M66.1,26.3c0-5.9-5.1-12.2-5.1-10.3s0.9,26.6,0.9,26.6L61,58.8c0,1.1,0.9,2,2,2s2-0.9,2-2l-0.5-16.3C64.5,42.5,66.1,32.2,66.1,26.3z"/>
</g>
<g transform="translate(36,0)">
<circle cx="36" cy="36" r="24"/>
<circle cx="36" cy="36" r="18" fill="#FFFFFF"/>
</g>
<g transform="scale(0.5) translate(208,8)">
<path d="M11.4,16.7c0,0,0.1,4.2,0.1,8.1c0,3-0.9,4.8-2.2,5.6l0,0l0,28.4c0,1.1-0.9,2-2,2s-2-0.9-2-2l0.8-28.4l0,0C4.9,29.7,4,27.8,4,24.8c0-3.9,0.1-8.1,0.1-8.1"/>
<line x1="7.8" y1="16.7" x2="7.8" y2="26.3"/>
</g>
<g transform="scale(0.5) translate(256,8)">
<path d="M11.4,16.7c0,0,0.1,4.2,0.1,8.1c0,3-0.9,4.8-2.2,5.6l0,0l0,28.4c0,1.1-0.9,2-2,2s-2-0.9-2-2l0.8-28.4l0,0C4.9,29.7,4,27.8,4,24.8c0-3.9,0.1-8.1,0.1-8.1"/>
<line x1="7.8" y1="16.7" x2="7.8" y2="26.3"/>
</g>
<g transform="scale(0.5) translate(202,60)">
<path d="M66.1,26.3c0-5.9-5.1-12.2-5.1-10.3s0.9,26.6,0.9,26.6L61,58.8c0,1.1,0.9,2,2,2s2-0.9,2-2l-0.5-16.3C64.5,42.5,66.1,32.2,66.1,26.3z"/>
</g>
<g transform="scale(0.5) translate(104,-33) rotate(-90, 132, 36)">
<path d="M66.1,26.3c0-5.9-5.1-12.2-5.1-10.3s0.9,26.6,0.9,26.6L61,58.8c0,1.1,0.9,2,2,2s2-0.9,2-2l-0.5-16.3C64.5,42.5,66.1,32.2,66.1,26.3z"/>
</g>
</g>
</svg>
